<mxfile host="Electron" modified="2023-10-19T09:09:45.821Z" agent="Mozilla/5.0 (Windows NT 10.0; Win64; x64) AppleWebKit/537.36 (KHTML, like Gecko) draw.io/22.0.2 Chrome/114.0.5735.289 Electron/25.8.4 Safari/537.36" etag="IQz0PUY5gavsOByX5vWQ" version="22.0.2" type="device" pages="2">
  <diagram id="Ht1M8jgEwFfnCIfOTk4-" name="Page-1 全体図">
    <mxGraphModel dx="3560" dy="1206" grid="1" gridSize="10" guides="1" tooltips="1" connect="1" arrows="1" fold="1" page="1" pageScale="1" pageWidth="1169" pageHeight="827" background="none" math="0" shadow="0">
      <root>
        <mxCell id="0" />
        <mxCell id="1" parent="0" />
        <mxCell id="UEzPUAAOIrF-is8g5C7q-74" value="AWS Cloud" style="points=[[0,0],[0.25,0],[0.5,0],[0.75,0],[1,0],[1,0.25],[1,0.5],[1,0.75],[1,1],[0.75,1],[0.5,1],[0.25,1],[0,1],[0,0.75],[0,0.5],[0,0.25]];outlineConnect=0;gradientColor=none;html=1;whiteSpace=wrap;fontSize=12;fontStyle=0;shape=mxgraph.aws4.group;grIcon=mxgraph.aws4.group_aws_cloud_alt;strokeColor=#232F3E;fillColor=none;verticalAlign=top;align=left;spacingLeft=30;fontColor=#232F3E;dashed=0;labelBackgroundColor=#ffffff;container=1;pointerEvents=0;collapsible=0;recursiveResize=0;" parent="1" vertex="1">
          <mxGeometry x="-520" y="80" width="1790" height="820" as="geometry" />
        </mxCell>
        <mxCell id="5VgFTfoLcMYjIaain2nM-104" value="" style="rounded=0;whiteSpace=wrap;html=1;fillColor=none;" parent="UEzPUAAOIrF-is8g5C7q-74" vertex="1">
          <mxGeometry x="1460" y="20" width="300" height="740" as="geometry" />
        </mxCell>
        <mxCell id="UEzPUAAOIrF-is8g5C7q-107" value="" style="rounded=0;whiteSpace=wrap;html=1;labelBackgroundColor=none;fillColor=none;dashed=1;container=1;pointerEvents=0;collapsible=0;recursiveResize=0;" parent="UEzPUAAOIrF-is8g5C7q-74" vertex="1">
          <mxGeometry x="370" y="40" width="1040" height="670" as="geometry" />
        </mxCell>
        <mxCell id="5VgFTfoLcMYjIaain2nM-2" value="" style="rounded=0;whiteSpace=wrap;html=1;labelBackgroundColor=none;fillColor=none;dashed=1;container=1;pointerEvents=0;collapsible=0;recursiveResize=0;" parent="UEzPUAAOIrF-is8g5C7q-107" vertex="1">
          <mxGeometry x="230" y="38" width="790" height="620" as="geometry" />
        </mxCell>
        <mxCell id="5VgFTfoLcMYjIaain2nM-6" value="Amazon ECS" style="sketch=0;outlineConnect=0;fontColor=#232F3E;gradientColor=none;strokeColor=#ffffff;fillColor=#232F3E;dashed=0;verticalLabelPosition=middle;verticalAlign=bottom;align=center;html=1;whiteSpace=wrap;fontSize=10;fontStyle=1;spacing=3;shape=mxgraph.aws4.productIcon;prIcon=mxgraph.aws4.ecs;" parent="5VgFTfoLcMYjIaain2nM-2" vertex="1">
          <mxGeometry x="130" y="32" width="80" height="100" as="geometry" />
        </mxCell>
        <mxCell id="5VgFTfoLcMYjIaain2nM-7" value="" style="rounded=0;whiteSpace=wrap;html=1;fillColor=none;" parent="5VgFTfoLcMYjIaain2nM-2" vertex="1">
          <mxGeometry x="130" y="32" width="625" height="260" as="geometry" />
        </mxCell>
        <mxCell id="5VgFTfoLcMYjIaain2nM-9" value="" style="rounded=0;whiteSpace=wrap;html=1;fillColor=none;" parent="5VgFTfoLcMYjIaain2nM-2" vertex="1">
          <mxGeometry x="225" y="52" width="500" height="230" as="geometry" />
        </mxCell>
        <mxCell id="5VgFTfoLcMYjIaain2nM-10" value="サービス" style="text;html=1;align=center;verticalAlign=middle;resizable=0;points=[];autosize=1;strokeColor=none;fillColor=none;" parent="5VgFTfoLcMYjIaain2nM-2" vertex="1">
          <mxGeometry x="225" y="52" width="70" height="30" as="geometry" />
        </mxCell>
        <mxCell id="5VgFTfoLcMYjIaain2nM-11" value="クラスタ" style="text;html=1;align=center;verticalAlign=middle;resizable=0;points=[];autosize=1;strokeColor=none;fillColor=none;" parent="5VgFTfoLcMYjIaain2nM-2" vertex="1">
          <mxGeometry x="130" y="132" width="70" height="30" as="geometry" />
        </mxCell>
        <mxCell id="5VgFTfoLcMYjIaain2nM-13" value="" style="rounded=0;whiteSpace=wrap;html=1;fillColor=none;" parent="5VgFTfoLcMYjIaain2nM-2" vertex="1">
          <mxGeometry x="275" y="92" width="290" height="80" as="geometry" />
        </mxCell>
        <mxCell id="5VgFTfoLcMYjIaain2nM-14" value="" style="rounded=0;whiteSpace=wrap;html=1;fillColor=none;" parent="5VgFTfoLcMYjIaain2nM-2" vertex="1">
          <mxGeometry x="275" y="182" width="290" height="80" as="geometry" />
        </mxCell>
        <mxCell id="5VgFTfoLcMYjIaain2nM-15" value="タスク" style="text;html=1;align=center;verticalAlign=middle;resizable=0;points=[];autosize=1;strokeColor=none;fillColor=none;" parent="5VgFTfoLcMYjIaain2nM-2" vertex="1">
          <mxGeometry x="275" y="92" width="60" height="30" as="geometry" />
        </mxCell>
        <mxCell id="5VgFTfoLcMYjIaain2nM-16" value="タスク" style="text;html=1;align=center;verticalAlign=middle;resizable=0;points=[];autosize=1;strokeColor=none;fillColor=none;" parent="5VgFTfoLcMYjIaain2nM-2" vertex="1">
          <mxGeometry x="275" y="182" width="60" height="30" as="geometry" />
        </mxCell>
        <mxCell id="5VgFTfoLcMYjIaain2nM-77" value="nginx" style="rounded=0;whiteSpace=wrap;html=1;fillColor=none;" parent="5VgFTfoLcMYjIaain2nM-2" vertex="1">
          <mxGeometry x="325" y="124" width="80" height="38" as="geometry" />
        </mxCell>
        <mxCell id="5VgFTfoLcMYjIaain2nM-78" value="JDK" style="rounded=0;whiteSpace=wrap;html=1;fillColor=none;" parent="5VgFTfoLcMYjIaain2nM-2" vertex="1">
          <mxGeometry x="435" y="124" width="80" height="38" as="geometry" />
        </mxCell>
        <mxCell id="5VgFTfoLcMYjIaain2nM-79" value="nginx" style="rounded=0;whiteSpace=wrap;html=1;fillColor=none;" parent="5VgFTfoLcMYjIaain2nM-2" vertex="1">
          <mxGeometry x="325" y="209" width="80" height="38" as="geometry" />
        </mxCell>
        <mxCell id="5VgFTfoLcMYjIaain2nM-80" value="JDK" style="rounded=0;whiteSpace=wrap;html=1;fillColor=none;" parent="5VgFTfoLcMYjIaain2nM-2" vertex="1">
          <mxGeometry x="435" y="209" width="80" height="38" as="geometry" />
        </mxCell>
        <mxCell id="5VgFTfoLcMYjIaain2nM-81" value="Amazon VPC" style="sketch=0;outlineConnect=0;fontColor=#232F3E;gradientColor=none;strokeColor=#ffffff;fillColor=#232F3E;dashed=0;verticalLabelPosition=middle;verticalAlign=bottom;align=center;html=1;whiteSpace=wrap;fontSize=10;fontStyle=1;spacing=3;shape=mxgraph.aws4.productIcon;prIcon=mxgraph.aws4.vpc;" parent="5VgFTfoLcMYjIaain2nM-2" vertex="1">
          <mxGeometry width="80" height="100" as="geometry" />
        </mxCell>
        <mxCell id="5VgFTfoLcMYjIaain2nM-1" value="Tokyo" style="text;html=1;align=center;verticalAlign=middle;resizable=0;points=[];autosize=1;strokeColor=none;fillColor=none;" parent="UEzPUAAOIrF-is8g5C7q-107" vertex="1">
          <mxGeometry width="50" height="30" as="geometry" />
        </mxCell>
        <mxCell id="5VgFTfoLcMYjIaain2nM-74" value="Amazon S3" style="sketch=0;outlineConnect=0;fontColor=#232F3E;gradientColor=none;strokeColor=#ffffff;fillColor=#232F3E;dashed=0;verticalLabelPosition=middle;verticalAlign=bottom;align=center;html=1;whiteSpace=wrap;fontSize=10;fontStyle=1;spacing=3;shape=mxgraph.aws4.productIcon;prIcon=mxgraph.aws4.s3;" parent="UEzPUAAOIrF-is8g5C7q-107" vertex="1">
          <mxGeometry x="80" y="30" width="80" height="100" as="geometry" />
        </mxCell>
        <mxCell id="5VgFTfoLcMYjIaain2nM-76" value="Amazon API Gateway" style="sketch=0;outlineConnect=0;fontColor=#232F3E;gradientColor=none;strokeColor=#ffffff;fillColor=#232F3E;dashed=0;verticalLabelPosition=middle;verticalAlign=bottom;align=center;html=1;whiteSpace=wrap;fontSize=10;fontStyle=1;spacing=3;shape=mxgraph.aws4.productIcon;prIcon=mxgraph.aws4.api_gateway;" parent="UEzPUAAOIrF-is8g5C7q-107" vertex="1">
          <mxGeometry x="80" y="198" width="80" height="110" as="geometry" />
        </mxCell>
        <mxCell id="5VgFTfoLcMYjIaain2nM-108" value="" style="edgeStyle=orthogonalEdgeStyle;rounded=0;orthogonalLoop=1;jettySize=auto;html=1;entryX=0;entryY=0.5;entryDx=0;entryDy=0;" parent="UEzPUAAOIrF-is8g5C7q-107" source="5VgFTfoLcMYjIaain2nM-76" target="5VgFTfoLcMYjIaain2nM-9" edge="1">
          <mxGeometry relative="1" as="geometry">
            <mxPoint x="-50" y="210" as="sourcePoint" />
            <mxPoint x="90" y="263" as="targetPoint" />
            <Array as="points">
              <mxPoint x="333" y="253" />
              <mxPoint x="333" y="205" />
            </Array>
          </mxGeometry>
        </mxCell>
        <mxCell id="5VgFTfoLcMYjIaain2nM-88" style="edgeStyle=orthogonalEdgeStyle;rounded=0;orthogonalLoop=1;jettySize=auto;html=1;" parent="UEzPUAAOIrF-is8g5C7q-74" source="5VgFTfoLcMYjIaain2nM-5" target="5VgFTfoLcMYjIaain2nM-83" edge="1">
          <mxGeometry relative="1" as="geometry" />
        </mxCell>
        <mxCell id="5VgFTfoLcMYjIaain2nM-5" value="AWS CodeCommit" style="sketch=0;outlineConnect=0;fontColor=#232F3E;gradientColor=none;strokeColor=#ffffff;fillColor=#232F3E;dashed=0;verticalLabelPosition=middle;verticalAlign=bottom;align=center;html=1;whiteSpace=wrap;fontSize=10;fontStyle=1;spacing=3;shape=mxgraph.aws4.productIcon;prIcon=mxgraph.aws4.codecommit;" parent="UEzPUAAOIrF-is8g5C7q-74" vertex="1">
          <mxGeometry x="1600" y="90" width="80" height="110" as="geometry" />
        </mxCell>
        <mxCell id="5VgFTfoLcMYjIaain2nM-106" value="" style="edgeStyle=orthogonalEdgeStyle;rounded=0;orthogonalLoop=1;jettySize=auto;html=1;entryX=0;entryY=0.5;entryDx=0;entryDy=0;entryPerimeter=0;" parent="UEzPUAAOIrF-is8g5C7q-74" source="5VgFTfoLcMYjIaain2nM-73" target="5VgFTfoLcMYjIaain2nM-74" edge="1">
          <mxGeometry relative="1" as="geometry">
            <mxPoint x="400" y="245.00000000000023" as="targetPoint" />
            <Array as="points">
              <mxPoint x="385" y="230" />
              <mxPoint x="385" y="120" />
            </Array>
          </mxGeometry>
        </mxCell>
        <mxCell id="5VgFTfoLcMYjIaain2nM-73" value="Amazon Cloudfront" style="sketch=0;outlineConnect=0;fontColor=#232F3E;gradientColor=none;strokeColor=#ffffff;fillColor=#232F3E;dashed=0;verticalLabelPosition=middle;verticalAlign=bottom;align=center;html=1;whiteSpace=wrap;fontSize=10;fontStyle=1;spacing=3;shape=mxgraph.aws4.productIcon;prIcon=mxgraph.aws4.cloudfront;" parent="UEzPUAAOIrF-is8g5C7q-74" vertex="1">
          <mxGeometry x="240" y="190" width="80" height="110" as="geometry" />
        </mxCell>
        <mxCell id="5VgFTfoLcMYjIaain2nM-83" value="Amazon ECR" style="sketch=0;outlineConnect=0;fontColor=#232F3E;gradientColor=none;strokeColor=#ffffff;fillColor=#232F3E;dashed=0;verticalLabelPosition=middle;verticalAlign=bottom;align=center;html=1;whiteSpace=wrap;fontSize=10;fontStyle=1;spacing=3;shape=mxgraph.aws4.productIcon;prIcon=mxgraph.aws4.ecr;" parent="UEzPUAAOIrF-is8g5C7q-74" vertex="1">
          <mxGeometry x="1600" y="380" width="80" height="100" as="geometry" />
        </mxCell>
        <mxCell id="5VgFTfoLcMYjIaain2nM-84" value="AWS CodePipeline" style="sketch=0;outlineConnect=0;fontColor=#232F3E;gradientColor=none;strokeColor=#ffffff;fillColor=#232F3E;dashed=0;verticalLabelPosition=middle;verticalAlign=bottom;align=center;html=1;whiteSpace=wrap;fontSize=10;fontStyle=1;spacing=3;shape=mxgraph.aws4.productIcon;prIcon=mxgraph.aws4.codepipeline;" parent="UEzPUAAOIrF-is8g5C7q-74" vertex="1">
          <mxGeometry x="1460" y="19" width="80" height="110" as="geometry" />
        </mxCell>
        <mxCell id="5VgFTfoLcMYjIaain2nM-85" value="AWS CodeBuild" style="sketch=0;outlineConnect=0;fontColor=#232F3E;gradientColor=none;strokeColor=#ffffff;fillColor=#232F3E;dashed=0;verticalLabelPosition=middle;verticalAlign=bottom;align=center;html=1;whiteSpace=wrap;fontSize=10;fontStyle=1;spacing=3;shape=mxgraph.aws4.productIcon;prIcon=mxgraph.aws4.codebuild;" parent="UEzPUAAOIrF-is8g5C7q-74" vertex="1">
          <mxGeometry x="1600" y="224" width="80" height="110" as="geometry" />
        </mxCell>
        <mxCell id="5VgFTfoLcMYjIaain2nM-109" value="AWS CodeDeploy" style="sketch=0;outlineConnect=0;fontColor=#232F3E;gradientColor=none;strokeColor=#ffffff;fillColor=#232F3E;dashed=0;verticalLabelPosition=middle;verticalAlign=bottom;align=center;html=1;whiteSpace=wrap;fontSize=10;fontStyle=1;spacing=3;shape=mxgraph.aws4.productIcon;prIcon=mxgraph.aws4.codedeploy;" parent="UEzPUAAOIrF-is8g5C7q-74" vertex="1">
          <mxGeometry x="1480" y="170" width="80" height="110" as="geometry" />
        </mxCell>
        <mxCell id="5VgFTfoLcMYjIaain2nM-111" value="" style="endArrow=classic;html=1;rounded=0;" parent="UEzPUAAOIrF-is8g5C7q-74" source="5VgFTfoLcMYjIaain2nM-109" edge="1">
          <mxGeometry width="50" height="50" relative="1" as="geometry">
            <mxPoint x="1860" y="480" as="sourcePoint" />
            <mxPoint x="1110" y="221" as="targetPoint" />
          </mxGeometry>
        </mxCell>
        <mxCell id="5VgFTfoLcMYjIaain2nM-114" style="edgeStyle=orthogonalEdgeStyle;rounded=0;orthogonalLoop=1;jettySize=auto;html=1;" parent="UEzPUAAOIrF-is8g5C7q-74" source="5VgFTfoLcMYjIaain2nM-83" target="5VgFTfoLcMYjIaain2nM-109" edge="1">
          <mxGeometry relative="1" as="geometry">
            <mxPoint x="1650" y="210" as="sourcePoint" />
            <mxPoint x="1650" y="390" as="targetPoint" />
          </mxGeometry>
        </mxCell>
        <mxCell id="5VgFTfoLcMYjIaain2nM-107" value="" style="edgeStyle=orthogonalEdgeStyle;rounded=0;orthogonalLoop=1;jettySize=auto;html=1;" parent="1" target="5VgFTfoLcMYjIaain2nM-76" edge="1">
          <mxGeometry relative="1" as="geometry">
            <mxPoint x="-210" y="320" as="sourcePoint" />
            <mxPoint x="-60" y="210" as="targetPoint" />
          </mxGeometry>
        </mxCell>
      </root>
    </mxGraphModel>
  </diagram>
  <diagram id="Qzb38yNXJCsvC0U1bqf0" name="Page-2 CodePipeline設計">
    <mxGraphModel dx="1266" dy="1055" grid="1" gridSize="10" guides="1" tooltips="1" connect="1" arrows="1" fold="1" page="1" pageScale="1" pageWidth="827" pageHeight="1169" math="0" shadow="0">
      <root>
        <mxCell id="0" />
        <mxCell id="1" parent="0" />
        <mxCell id="PxIl9AyZqKUILsPKXosU-3" value="" style="rounded=0;whiteSpace=wrap;html=1;" vertex="1" parent="1">
          <mxGeometry x="840" y="40" width="1780" height="630" as="geometry" />
        </mxCell>
        <mxCell id="PxIl9AyZqKUILsPKXosU-4" value="" style="rounded=0;whiteSpace=wrap;html=1;" vertex="1" parent="1">
          <mxGeometry x="1280" y="120" width="260" height="520" as="geometry" />
        </mxCell>
        <mxCell id="a3ZWLFis5aGh8zFuzZp8-1" value="AWS CodePipeline" style="sketch=0;outlineConnect=0;fontColor=#232F3E;gradientColor=none;strokeColor=#ffffff;fillColor=#232F3E;dashed=0;verticalLabelPosition=middle;verticalAlign=bottom;align=center;html=1;whiteSpace=wrap;fontSize=10;fontStyle=1;spacing=3;shape=mxgraph.aws4.productIcon;prIcon=mxgraph.aws4.codepipeline;" vertex="1" parent="1">
          <mxGeometry x="860" y="60" width="80" height="110" as="geometry" />
        </mxCell>
        <mxCell id="a3ZWLFis5aGh8zFuzZp8-2" value="005_PIPELINE.tf" style="text;html=1;align=center;verticalAlign=middle;resizable=0;points=[];autosize=1;strokeColor=none;fillColor=none;" vertex="1" parent="1">
          <mxGeometry x="960" y="60" width="110" height="30" as="geometry" />
        </mxCell>
        <mxCell id="a3ZWLFis5aGh8zFuzZp8-9" value="" style="edgeStyle=orthogonalEdgeStyle;rounded=0;orthogonalLoop=1;jettySize=auto;html=1;" edge="1" parent="1" source="a3ZWLFis5aGh8zFuzZp8-3" target="a3ZWLFis5aGh8zFuzZp8-4">
          <mxGeometry relative="1" as="geometry" />
        </mxCell>
        <mxCell id="a3ZWLFis5aGh8zFuzZp8-3" value="&lt;div style=&quot;color: rgb(212, 212, 212); background-color: rgb(30, 30, 30); font-family: Consolas, &amp;quot;Courier New&amp;quot;, monospace; font-weight: normal; font-size: 14px; line-height: 19px;&quot;&gt;&lt;div style=&quot;line-height: 19px;&quot;&gt;Source&lt;/div&gt;&lt;/div&gt;" style="text;whiteSpace=wrap;html=1;align=center;" vertex="1" parent="1">
          <mxGeometry x="940" y="220" width="80" height="40" as="geometry" />
        </mxCell>
        <mxCell id="a3ZWLFis5aGh8zFuzZp8-4" value="&lt;div style=&quot;color: rgb(212, 212, 212); background-color: rgb(30, 30, 30); font-family: Consolas, &amp;quot;Courier New&amp;quot;, monospace; font-weight: normal; font-size: 14px; line-height: 19px;&quot;&gt;&lt;div style=&quot;line-height: 19px;&quot;&gt;Build_Nginx&lt;/div&gt;&lt;/div&gt;" style="text;whiteSpace=wrap;html=1;align=center;" vertex="1" parent="1">
          <mxGeometry x="925" y="310" width="110" height="40" as="geometry" />
        </mxCell>
        <mxCell id="a3ZWLFis5aGh8zFuzZp8-5" value="&lt;div style=&quot;color: rgb(212, 212, 212); background-color: rgb(30, 30, 30); font-family: Consolas, &amp;quot;Courier New&amp;quot;, monospace; font-size: 14px; line-height: 19px;&quot;&gt;Build_JDK&lt;/div&gt;" style="text;html=1;align=center;verticalAlign=middle;resizable=0;points=[];autosize=1;strokeColor=none;fillColor=none;" vertex="1" parent="1">
          <mxGeometry x="935" y="400" width="90" height="30" as="geometry" />
        </mxCell>
        <mxCell id="a3ZWLFis5aGh8zFuzZp8-6" value="&lt;div style=&quot;color: rgb(212, 212, 212); background-color: rgb(30, 30, 30); font-family: Consolas, &amp;quot;Courier New&amp;quot;, monospace; font-size: 14px; line-height: 19px;&quot;&gt;Deploy1&lt;/div&gt;" style="text;html=1;align=center;verticalAlign=middle;resizable=0;points=[];autosize=1;strokeColor=none;fillColor=none;" vertex="1" parent="1">
          <mxGeometry x="940" y="490" width="80" height="30" as="geometry" />
        </mxCell>
        <mxCell id="a3ZWLFis5aGh8zFuzZp8-7" value="&lt;div style=&quot;color: rgb(212, 212, 212); background-color: rgb(30, 30, 30); font-family: Consolas, &amp;quot;Courier New&amp;quot;, monospace; font-size: 14px; line-height: 19px;&quot;&gt;Deploy2&lt;/div&gt;" style="text;html=1;align=center;verticalAlign=middle;resizable=0;points=[];autosize=1;strokeColor=none;fillColor=none;" vertex="1" parent="1">
          <mxGeometry x="940" y="600" width="80" height="30" as="geometry" />
        </mxCell>
        <mxCell id="a3ZWLFis5aGh8zFuzZp8-10" value="" style="edgeStyle=orthogonalEdgeStyle;rounded=0;orthogonalLoop=1;jettySize=auto;html=1;exitX=0.5;exitY=1;exitDx=0;exitDy=0;" edge="1" parent="1" source="a3ZWLFis5aGh8zFuzZp8-4" target="a3ZWLFis5aGh8zFuzZp8-5">
          <mxGeometry relative="1" as="geometry">
            <mxPoint x="990" y="270" as="sourcePoint" />
            <mxPoint x="990" y="320" as="targetPoint" />
          </mxGeometry>
        </mxCell>
        <mxCell id="a3ZWLFis5aGh8zFuzZp8-11" value="" style="edgeStyle=orthogonalEdgeStyle;rounded=0;orthogonalLoop=1;jettySize=auto;html=1;" edge="1" parent="1" source="a3ZWLFis5aGh8zFuzZp8-5" target="a3ZWLFis5aGh8zFuzZp8-6">
          <mxGeometry relative="1" as="geometry">
            <mxPoint x="1060" y="460" as="sourcePoint" />
            <mxPoint x="990" y="480" as="targetPoint" />
            <Array as="points" />
          </mxGeometry>
        </mxCell>
        <mxCell id="a3ZWLFis5aGh8zFuzZp8-12" value="" style="edgeStyle=orthogonalEdgeStyle;rounded=0;orthogonalLoop=1;jettySize=auto;html=1;" edge="1" parent="1" source="a3ZWLFis5aGh8zFuzZp8-6">
          <mxGeometry relative="1" as="geometry">
            <mxPoint x="990" y="440" as="sourcePoint" />
            <mxPoint x="980" y="600" as="targetPoint" />
            <Array as="points">
              <mxPoint x="980" y="570" />
              <mxPoint x="980" y="570" />
            </Array>
          </mxGeometry>
        </mxCell>
        <mxCell id="PxIl9AyZqKUILsPKXosU-2" value="Amazon S3" style="sketch=0;outlineConnect=0;fontColor=#232F3E;gradientColor=none;strokeColor=#ffffff;fillColor=#232F3E;dashed=0;verticalLabelPosition=middle;verticalAlign=bottom;align=center;html=1;whiteSpace=wrap;fontSize=10;fontStyle=1;spacing=3;shape=mxgraph.aws4.productIcon;prIcon=mxgraph.aws4.s3;" vertex="1" parent="1">
          <mxGeometry x="1460" y="120" width="80" height="100" as="geometry" />
        </mxCell>
        <mxCell id="PxIl9AyZqKUILsPKXosU-5" value="" style="shape=step;perimeter=stepPerimeter;whiteSpace=wrap;html=1;fixedSize=1;" vertex="1" parent="1">
          <mxGeometry x="1040" y="210" width="230" height="60" as="geometry" />
        </mxCell>
        <mxCell id="a3ZWLFis5aGh8zFuzZp8-13" value="・下記の資材がS3に登録される&lt;br&gt;CodeCommit&lt;br&gt;└NginxRepository&lt;br&gt;└AppRepository" style="text;html=1;align=left;verticalAlign=middle;resizable=0;points=[];autosize=1;strokeColor=none;fillColor=none;" vertex="1" parent="1">
          <mxGeometry x="1070" y="205" width="190" height="70" as="geometry" />
        </mxCell>
        <mxCell id="PxIl9AyZqKUILsPKXosU-7" value="" style="shape=step;perimeter=stepPerimeter;whiteSpace=wrap;html=1;fixedSize=1;" vertex="1" parent="1">
          <mxGeometry x="1550" y="300" width="220" height="60" as="geometry" />
        </mxCell>
        <mxCell id="PxIl9AyZqKUILsPKXosU-8" value="CodeCommit&lt;br&gt;└NginxRepository&lt;br&gt;　└buildspec.yaml" style="text;html=1;align=left;verticalAlign=middle;resizable=0;points=[];autosize=1;strokeColor=none;fillColor=none;" vertex="1" parent="1">
          <mxGeometry x="1600" y="300" width="120" height="60" as="geometry" />
        </mxCell>
        <mxCell id="PxIl9AyZqKUILsPKXosU-10" value="" style="shape=step;perimeter=stepPerimeter;whiteSpace=wrap;html=1;fixedSize=1;" vertex="1" parent="1">
          <mxGeometry x="1550" y="385" width="220" height="60" as="geometry" />
        </mxCell>
        <mxCell id="PxIl9AyZqKUILsPKXosU-11" value="CodeCommit&lt;br&gt;└NginxRepository" style="text;html=1;align=left;verticalAlign=middle;resizable=0;points=[];autosize=1;strokeColor=none;fillColor=none;" vertex="1" parent="1">
          <mxGeometry x="1600" y="395" width="120" height="40" as="geometry" />
        </mxCell>
        <mxCell id="PxIl9AyZqKUILsPKXosU-12" value="" style="rounded=0;whiteSpace=wrap;html=1;" vertex="1" parent="1">
          <mxGeometry x="1780" y="110" width="270" height="530" as="geometry" />
        </mxCell>
        <mxCell id="reqJD5H8NwUnIyEtu8de-2" value="Amazon ECR" style="sketch=0;outlineConnect=0;fontColor=#232F3E;gradientColor=none;strokeColor=#ffffff;fillColor=#232F3E;dashed=0;verticalLabelPosition=middle;verticalAlign=bottom;align=center;html=1;whiteSpace=wrap;fontSize=10;fontStyle=1;spacing=3;shape=mxgraph.aws4.productIcon;prIcon=mxgraph.aws4.ecr;" vertex="1" parent="1">
          <mxGeometry x="1980" y="110" width="70" height="90" as="geometry" />
        </mxCell>
        <mxCell id="reqJD5H8NwUnIyEtu8de-4" value="AmazonECR&lt;br&gt;└base-nginx&lt;br&gt;をベースイメージとして&lt;br&gt;AmazonECR&lt;br style=&quot;border-color: var(--border-color);&quot;&gt;&lt;b&gt;└ngnx-images-repo&lt;br&gt;&lt;/b&gt;にビルド済みイメージを新規登録" style="text;html=1;align=left;verticalAlign=middle;resizable=0;points=[];autosize=1;strokeColor=none;fillColor=none;" vertex="1" parent="1">
          <mxGeometry x="1790" y="270" width="200" height="100" as="geometry" />
        </mxCell>
        <mxCell id="reqJD5H8NwUnIyEtu8de-6" value="AmazonECR&lt;br&gt;└base-amazoncorret&lt;br&gt;をベースイメージとして&lt;br&gt;AmazonECR&lt;br style=&quot;border-color: var(--border-color);&quot;&gt;&lt;b&gt;└jdk-images-repo&lt;br&gt;&lt;/b&gt;にビルド済みイメージを新規登録" style="text;html=1;align=left;verticalAlign=middle;resizable=0;points=[];autosize=1;strokeColor=none;fillColor=none;" vertex="1" parent="1">
          <mxGeometry x="1790" y="380" width="200" height="100" as="geometry" />
        </mxCell>
        <mxCell id="reqJD5H8NwUnIyEtu8de-8" value="" style="rounded=0;whiteSpace=wrap;html=1;" vertex="1" parent="1">
          <mxGeometry x="2320" y="110" width="240" height="530" as="geometry" />
        </mxCell>
        <mxCell id="OA_XQ6LCzhesGCh9Jqn2-2" value="Amazon ECS" style="sketch=0;outlineConnect=0;fontColor=#232F3E;gradientColor=none;strokeColor=#ffffff;fillColor=#232F3E;dashed=0;verticalLabelPosition=middle;verticalAlign=bottom;align=center;html=1;whiteSpace=wrap;fontSize=10;fontStyle=1;spacing=3;shape=mxgraph.aws4.productIcon;prIcon=mxgraph.aws4.ecs;" vertex="1" parent="1">
          <mxGeometry x="2480" y="110" width="80" height="100" as="geometry" />
        </mxCell>
        <mxCell id="OA_XQ6LCzhesGCh9Jqn2-3" value="&lt;b style=&quot;border-color: var(--border-color); text-align: left;&quot;&gt;ngnx-images-repoをコンテナ起動&lt;/b&gt;" style="shape=step;perimeter=stepPerimeter;whiteSpace=wrap;html=1;fixedSize=1;" vertex="1" parent="1">
          <mxGeometry x="2068" y="500" width="242" height="55" as="geometry" />
        </mxCell>
        <mxCell id="OA_XQ6LCzhesGCh9Jqn2-4" value="&lt;b style=&quot;border-color: var(--border-color); text-align: left;&quot;&gt;jdk-images-repoをコンテナ起動&lt;/b&gt;" style="shape=step;perimeter=stepPerimeter;whiteSpace=wrap;html=1;fixedSize=1;" vertex="1" parent="1">
          <mxGeometry x="2068" y="575" width="220" height="55" as="geometry" />
        </mxCell>
        <mxCell id="OA_XQ6LCzhesGCh9Jqn2-5" value="&lt;div style=&quot;color: rgb(212, 212, 212); background-color: rgb(30, 30, 30); font-family: Consolas, &amp;quot;Courier New&amp;quot;, monospace; font-size: 14px; line-height: 19px;&quot;&gt;imagedefinitions_NGINX.json&lt;/div&gt;" style="text;html=1;align=left;verticalAlign=middle;resizable=0;points=[];autosize=1;strokeColor=none;fillColor=none;" vertex="1" parent="1">
          <mxGeometry x="1300" y="315" width="230" height="30" as="geometry" />
        </mxCell>
        <mxCell id="OA_XQ6LCzhesGCh9Jqn2-6" value="&lt;div style=&quot;color: rgb(212, 212, 212); background-color: rgb(30, 30, 30); font-family: Consolas, &amp;quot;Courier New&amp;quot;, monospace; font-size: 14px; line-height: 19px;&quot;&gt;imagedefinitions_NGINX.json&lt;/div&gt;" style="text;html=1;align=left;verticalAlign=middle;resizable=0;points=[];autosize=1;strokeColor=none;fillColor=none;" vertex="1" parent="1">
          <mxGeometry x="1300" y="400" width="230" height="30" as="geometry" />
        </mxCell>
        <mxCell id="OA_XQ6LCzhesGCh9Jqn2-7" value="" style="endArrow=classic;html=1;rounded=0;exitX=0;exitY=0.5;exitDx=0;exitDy=0;" edge="1" parent="1" source="PxIl9AyZqKUILsPKXosU-7" target="OA_XQ6LCzhesGCh9Jqn2-5">
          <mxGeometry width="50" height="50" relative="1" as="geometry">
            <mxPoint x="1280" y="270" as="sourcePoint" />
            <mxPoint x="1330" y="220" as="targetPoint" />
          </mxGeometry>
        </mxCell>
        <mxCell id="OA_XQ6LCzhesGCh9Jqn2-8" value="" style="endArrow=classic;html=1;rounded=0;exitX=0;exitY=0.5;exitDx=0;exitDy=0;" edge="1" parent="1" source="PxIl9AyZqKUILsPKXosU-10" target="OA_XQ6LCzhesGCh9Jqn2-6">
          <mxGeometry width="50" height="50" relative="1" as="geometry">
            <mxPoint x="1580" y="340" as="sourcePoint" />
            <mxPoint x="1540" y="340" as="targetPoint" />
            <Array as="points">
              <mxPoint x="1550" y="420" />
            </Array>
          </mxGeometry>
        </mxCell>
        <mxCell id="OA_XQ6LCzhesGCh9Jqn2-10" value="" style="endArrow=classic;html=1;rounded=0;exitX=0.44;exitY=1.156;exitDx=0;exitDy=0;exitPerimeter=0;entryX=0;entryY=0.5;entryDx=0;entryDy=0;" edge="1" parent="1" source="OA_XQ6LCzhesGCh9Jqn2-5" target="OA_XQ6LCzhesGCh9Jqn2-3">
          <mxGeometry width="50" height="50" relative="1" as="geometry">
            <mxPoint x="1580" y="425" as="sourcePoint" />
            <mxPoint x="1540" y="429" as="targetPoint" />
            <Array as="points">
              <mxPoint x="1600" y="540" />
            </Array>
          </mxGeometry>
        </mxCell>
        <mxCell id="OA_XQ6LCzhesGCh9Jqn2-11" value="" style="endArrow=classic;html=1;rounded=0;exitX=0.5;exitY=0.99;exitDx=0;exitDy=0;exitPerimeter=0;entryX=0;entryY=0.5;entryDx=0;entryDy=0;" edge="1" parent="1" source="OA_XQ6LCzhesGCh9Jqn2-6" target="OA_XQ6LCzhesGCh9Jqn2-4">
          <mxGeometry width="50" height="50" relative="1" as="geometry">
            <mxPoint x="1400" y="500" as="sourcePoint" />
            <mxPoint x="2074" y="597" as="targetPoint" />
            <Array as="points">
              <mxPoint x="1586" y="609" />
            </Array>
          </mxGeometry>
        </mxCell>
      </root>
    </mxGraphModel>
  </diagram>
</mxfile>
